# Blender 3.1.0
# www.blender.org
mtllib deloranWheel.mtl
o CPDeLorean_EngineRearR_Mesh.001
v -0.675396 -0.476181 -0.443085
v -0.676375 -0.474081 -0.458705
v -0.677997 -0.470604 -0.474021
v -0.680245 -0.465782 -0.488888
v -0.683098 -0.459664 -0.503163
v -0.686529 -0.452307 -0.516706
v -0.690504 -0.443782 -0.529389
v -0.694985 -0.434171 -0.541089
v -0.699930 -0.423568 -0.551693
v -0.705290 -0.412073 -0.561099
v -0.711013 -0.399799 -0.569217
v -0.717046 -0.386862 -0.575968
v -0.775123 -0.262315 -0.569217
v -0.780847 -0.250040 -0.561099
v -0.786207 -0.238545 -0.551693
v -0.791152 -0.227942 -0.541089
v -0.795633 -0.218331 -0.529389
v -0.799608 -0.209807 -0.516706
v -0.803039 -0.202449 -0.503163
v -0.805892 -0.196331 -0.488888
v -0.808140 -0.191510 -0.474021
v -0.809762 -0.188032 -0.458704
v -0.810741 -0.185933 -0.443085
v -0.769091 -0.275251 -0.575968
v -0.762808 -0.288726 -0.273341
v -0.756334 -0.302607 -0.269505
v -0.749733 -0.316763 -0.267188
v -0.743068 -0.331057 -0.266413
v -0.736403 -0.345350 -0.267188
v -0.729802 -0.359506 -0.269505
v -0.723329 -0.373388 -0.273341
v -0.675068 -0.476883 -0.427314
v -0.675396 -0.476181 -0.411543
v -0.676375 -0.474081 -0.395924
v -0.775281 -0.263236 -0.434652
v -0.774498 -0.264885 -0.434474
v -0.773413 -0.267170 -0.434227
v -0.677997 -0.470604 -0.380607
v -0.772035 -0.270072 -0.433913
v -0.770378 -0.273561 -0.433535
v -0.768458 -0.277603 -0.433098
v -0.766294 -0.282160 -0.432605
v -0.763906 -0.287188 -0.432061
v -0.761317 -0.292639 -0.431471
v -0.758553 -0.298459 -0.430842
v -0.755639 -0.304594 -0.430178
v -0.752605 -0.310983 -0.429487
v -0.749478 -0.317566 -0.428774
v -0.746290 -0.324279 -0.428048
v -0.743071 -0.331056 -0.427315
v -0.739852 -0.337834 -0.426581
v -0.736664 -0.344547 -0.425855
v -0.733537 -0.351129 -0.425143
v -0.730502 -0.357519 -0.424452
v -0.727589 -0.363653 -0.423788
v -0.724824 -0.369474 -0.423158
v -0.722235 -0.374924 -0.422569
v -0.719846 -0.379953 -0.422025
v -0.717682 -0.384510 -0.421532
v -0.715762 -0.388552 -0.421094
v -0.714105 -0.392041 -0.420716
v -0.712726 -0.394942 -0.420403
v -0.711639 -0.397229 -0.420155
v -0.710857 -0.398877 -0.419977
v -0.710383 -0.399873 -0.434760
v -0.710855 -0.398878 -0.442134
v -0.711639 -0.397229 -0.449365
v -0.680245 -0.465782 -0.365740
v -0.712725 -0.394942 -0.456383
v -0.714103 -0.392041 -0.463122
v -0.715760 -0.388552 -0.469516
v -0.717680 -0.384510 -0.475504
v -0.719844 -0.379953 -0.481027
v -0.722232 -0.374925 -0.486033
v -0.724822 -0.369474 -0.490474
v -0.727586 -0.363653 -0.494306
v -0.730500 -0.357519 -0.497493
v -0.733535 -0.351130 -0.500005
v -0.736661 -0.344547 -0.501816
v -0.739849 -0.337834 -0.502910
v -0.743068 -0.331057 -0.503276
v -0.746287 -0.324279 -0.502910
v -0.749475 -0.317566 -0.501816
v -0.752602 -0.310983 -0.500005
v -0.755637 -0.304594 -0.497493
v -0.758551 -0.298459 -0.494306
v -0.761315 -0.292639 -0.490474
v -0.763904 -0.287189 -0.486033
v -0.766292 -0.282160 -0.481027
v -0.768457 -0.277603 -0.475504
v -0.770377 -0.273561 -0.469516
v -0.772034 -0.270072 -0.463122
v -0.773412 -0.267171 -0.456383
v -0.774498 -0.264884 -0.449365
v -0.775281 -0.263236 -0.442133
v -0.775754 -0.262240 -0.434760
v -0.683098 -0.459664 -0.351466
v -0.686529 -0.452307 -0.337922
v -0.690504 -0.443782 -0.325239
v -0.694985 -0.434171 -0.313540
v -0.699930 -0.423568 -0.302936
v -0.710225 -0.400206 -0.427314
v -0.710383 -0.399873 -0.419869
v -0.710855 -0.398878 -0.412495
v -0.711639 -0.397229 -0.405264
v -0.712724 -0.394943 -0.398245
v -0.714103 -0.392041 -0.391507
v -0.715760 -0.388552 -0.385112
v -0.717680 -0.384510 -0.379125
v -0.719844 -0.379953 -0.373602
v -0.722232 -0.374925 -0.368596
v -0.724822 -0.369474 -0.364155
v -0.705290 -0.412073 -0.293530
v -0.711013 -0.399799 -0.285412
v -0.727586 -0.363653 -0.360322
v -0.730500 -0.357519 -0.357135
v -0.733534 -0.351130 -0.354624
v -0.736661 -0.344547 -0.352813
v -0.739849 -0.337834 -0.351719
v -0.743068 -0.331057 -0.351353
v -0.746287 -0.324279 -0.351719
v -0.749475 -0.317566 -0.352813
v -0.752602 -0.310983 -0.354624
v -0.717046 -0.386862 -0.278661
v -0.775123 -0.262315 -0.285412
v -0.780847 -0.250040 -0.293530
v -0.786207 -0.238545 -0.302936
v -0.791151 -0.227942 -0.313540
v -0.795633 -0.218331 -0.325239
v -0.799608 -0.209807 -0.337922
v -0.803039 -0.202449 -0.351466
v -0.805892 -0.196331 -0.365740
v -0.808140 -0.191510 -0.380607
v -0.809762 -0.188032 -0.395924
v -0.810741 -0.185933 -0.411543
v -0.811068 -0.185230 -0.427314
v -0.769091 -0.275251 -0.278661
v -0.698534 -0.426561 -0.298911
v -0.699852 -0.423734 -0.302712
v -0.704067 -0.414695 -0.289201
v -0.705222 -0.412219 -0.293289
v -0.755637 -0.304594 -0.357135
v -0.758551 -0.298460 -0.360322
v -0.761315 -0.292639 -0.364155
v -0.763904 -0.287189 -0.368596
v -0.766292 -0.282160 -0.373602
v -0.768457 -0.277603 -0.379125
v -0.770377 -0.273561 -0.385112
v -0.772034 -0.270072 -0.391507
v -0.773412 -0.267171 -0.398245
v -0.774498 -0.264884 -0.405264
v -0.775281 -0.263236 -0.412495
v -0.775754 -0.262240 -0.419869
v -0.775912 -0.261907 -0.427314
v -0.762808 -0.288726 -0.581287
v -0.756334 -0.302607 -0.585124
v -0.749734 -0.316763 -0.587441
v -0.743068 -0.331057 -0.588216
v -0.736403 -0.345350 -0.587441
v -0.729802 -0.359506 -0.585124
v -0.723329 -0.373388 -0.581287
vn -0.9077 -0.4196 -0.0042
vn -0.9075 -0.4200 -0.0039
vn -0.9074 -0.4203 -0.0043
vn -0.9070 -0.4212 -0.0043
vn -0.9069 -0.4213 -0.0041
vn -0.9066 -0.4219 -0.0042
vn -0.9066 -0.4221 -0.0039
vn -0.9063 -0.4226 -0.0038
vn -0.9060 -0.4233 -0.0034
vn -0.9435 -0.3294 0.0354
vn -0.9433 -0.3300 0.0369
vn -0.9058 -0.4238 -0.0027
vn -0.9056 -0.4242 -0.0020
vn -0.9055 -0.4243 -0.0016
vn -0.9054 -0.4245 -0.0013
vn -0.9053 -0.4247 -0.0004
vn -0.9054 -0.4247 0.0004
vn -0.9054 -0.4245 0.0013
vn -0.9055 -0.4243 0.0020
vn -0.9056 -0.4242 0.0024
vn -0.9058 -0.4238 0.0027
vn -0.8611 -0.5069 0.0399
vn -0.8612 -0.5068 0.0398
vn -0.9060 -0.4232 0.0033
vn -0.9063 -0.4226 0.0038
vn -0.9034 -0.4288 -0.0000
vn -0.9034 -0.4288 -0.0001
vn -0.9033 -0.4290 -0.0000
vn -0.9034 -0.4289 -0.0000
vn -0.9033 -0.4289 -0.0000
vn -0.9032 -0.4291 -0.0000
vn -0.9033 -0.4291 -0.0000
vn -0.9066 -0.4219 0.0041
vn -0.9070 -0.4211 0.0043
vn -0.9073 -0.4204 0.0044
vn -0.9077 -0.4196 0.0042
vn -0.9080 -0.4189 0.0038
vn -0.9083 -0.4182 0.0034
vn -0.9086 -0.4177 0.0028
vn -0.9089 -0.4170 0.0021
vn -0.9088 -0.4173 0.0021
vn -0.9089 -0.4170 0.0013
vn -0.9090 -0.4168 0.0004
vn -0.9062 -0.4229 0.0003
vn -0.9063 -0.4227 -0.0000
vn -0.9032 -0.4293 0.0001
vn -0.9063 -0.4226 -0.0000
vn -0.9031 -0.4294 -0.0000
vn -0.9029 -0.4298 0.0002
vn -0.9032 -0.4293 -0.0000
vn -0.9092 -0.4163 0.0005
vn -0.9094 -0.4160 0.0005
vn -0.9093 -0.4161 0.0005
vn -0.9089 -0.4169 0.0012
vn -0.9074 -0.4203 0.0043
vn -0.9070 -0.4212 0.0043
vn -0.9066 -0.4219 0.0042
vn -0.9065 -0.4222 0.0038
vn -0.9064 -0.4224 0.0041
vn -0.9064 -0.4223 0.0042
vn -0.9060 -0.4233 0.0034
vn -0.9435 -0.3294 -0.0355
vn -0.9433 -0.3299 -0.0363
vn -0.9057 -0.4238 0.0027
vn -0.9056 -0.4242 0.0020
vn -0.9053 -0.4247 0.0004
vn -0.9054 -0.4245 -0.0012
vn -0.9055 -0.4243 -0.0021
vn -0.9058 -0.4237 -0.0032
vn -0.8611 -0.5069 -0.0399
vn -0.8612 -0.5067 -0.0398
vn -0.9060 -0.4232 -0.0033
vn -0.9066 -0.4219 -0.0041
vn -0.9072 -0.4206 -0.0050
vn -0.9071 -0.4208 -0.0048
vn -0.9072 -0.4207 -0.0049
vn -0.9072 -0.4207 -0.0048
vn -0.9073 -0.4204 -0.0043
vn -0.9075 -0.4200 -0.0038
vn -0.9080 -0.4189 -0.0038
vn -0.9083 -0.4182 -0.0034
vn -0.9086 -0.4177 -0.0028
vn -0.9088 -0.4173 -0.0021
vn -0.9089 -0.4170 -0.0013
vn -0.9090 -0.4168 -0.0004
vn -0.9091 -0.4165 -0.0005
vn -0.9090 -0.4168 -0.0005
vn -0.9089 -0.4169 -0.0012
vn -0.9086 -0.4177 -0.0020
vn -0.9086 -0.4177 -0.0027
vt 1.422758 0.717529
vt 1.422758 0.717529
vt 1.422758 0.717529
vt 1.422758 0.717529
vt 1.422758 0.717529
vt 1.422758 0.717529
vt 1.422758 0.717529
vt 1.422758 0.717529
vt 1.422758 0.717529
vt 1.422758 0.717529
vt 1.422758 0.717529
vt 1.422758 0.717529
vt 1.422758 0.717529
vt 1.422758 0.717529
vt 1.422758 0.717529
vt 1.422758 0.717529
vt 1.422758 0.717529
vt 1.422758 0.717529
vt 1.422758 0.717529
vt 1.422758 0.717529
vt 1.422758 0.717529
vt 1.422758 0.717529
vt 1.422758 0.717529
vt 1.422758 0.717529
vt 1.422758 0.717529
vt 1.422758 0.717529
vt 1.422758 0.717529
vt 1.422758 0.717529
vt 1.422758 0.717529
vt 1.422758 0.717529
vt 1.422758 0.717529
vt 1.422758 0.717529
vt 1.422758 0.717529
vt 1.422758 0.717529
vt 1.422758 0.717529
vt 1.422758 0.717529
vt 1.422758 0.717529
vt 1.422758 0.717529
vt 1.422758 0.717529
vt 1.422758 0.717529
vt 1.422758 0.717529
vt 1.422758 0.717529
vt 1.422758 0.717529
vt 1.422758 0.717529
vt 1.422758 0.717529
vt 1.422758 0.717529
vt 1.422758 0.717529
vt 1.422758 0.717529
vt 1.422758 0.717529
vt 1.422758 0.717529
vt 1.422758 0.717529
vt 1.422758 0.717529
vt 1.422758 0.717529
vt 1.422758 0.717529
vt 1.422758 0.717529
vt 1.422758 0.717529
vt 1.422758 0.717529
vt 1.422758 0.717529
vt 1.422758 0.717529
vt 1.422758 0.717529
vt 1.422758 0.717529
vt 1.422758 0.717529
vt 1.422758 0.717529
vt 1.422758 0.717529
vt 1.422758 0.717529
vt 1.422758 0.717529
vt 1.422758 0.717529
vt 1.422758 0.717529
vt 1.422758 0.717529
vt 1.422758 0.717529
vt 1.422758 0.717529
vt 1.422758 0.717529
vt 1.422758 0.717529
vt 1.422758 0.717529
vt 1.422758 0.717529
vt 1.422758 0.717529
vt 1.422758 0.717529
vt 1.422758 0.717529
vt 1.422758 0.717529
vt 1.422758 0.717529
vt 1.422758 0.717529
vt 1.422758 0.717529
vt 1.422758 0.717529
vt 1.422758 0.717529
vt 1.422758 0.717529
vt 1.422758 0.717529
vt 1.422758 0.717529
vt 1.422758 0.717529
vt 1.422758 0.717529
vt 1.422758 0.717529
vt 1.422758 0.717529
vt 1.422758 0.717529
vt 1.422758 0.717529
vt 1.422758 0.717529
vt 1.422758 0.717529
vt 1.422758 0.717529
vt 1.422758 0.717529
vt 1.422758 0.717529
vt 1.422758 0.717529
vt 1.422758 0.717529
vt 1.422758 0.717529
vt 1.422758 0.717529
vt 1.422758 0.717529
vt 1.422758 0.717529
vt 1.422758 0.717529
vt 1.422758 0.717529
vt 1.422758 0.717529
vt 1.422758 0.717529
vt 1.422758 0.717529
vt 1.422758 0.717529
vt 1.422758 0.717529
vt 1.422758 0.717529
vt 1.422758 0.717529
vt 1.422758 0.717529
vt 1.422758 0.717529
vt 1.422758 0.717529
vt 1.422758 0.717529
vt 1.422758 0.717529
vt 1.422758 0.717529
vt 1.422758 0.717529
vt 1.422758 0.717529
vt 1.422758 0.717529
vt 1.422758 0.717529
vt 1.422758 0.717529
vt 1.422758 0.717529
vt 1.422758 0.717529
vt 1.422758 0.717529
vt 1.422758 0.717529
vt 1.422758 0.717529
vt 1.422758 0.717529
vt 1.422758 0.717529
vt 1.422758 0.717529
vt 1.422758 0.717529
vt 1.422758 0.717529
vt 1.422758 0.717529
vt 1.422758 0.717529
vt 1.422758 0.717529
vt 1.422758 0.717529
vt 1.422758 0.717529
vt 1.422758 0.717529
vt 1.422758 0.717529
vt 1.422758 0.717529
vt 1.422758 0.717529
vt 1.422758 0.717529
vt 1.422758 0.717529
vt 1.422758 0.717529
vt 1.422758 0.717529
vt 1.422758 0.717529
vt 1.422758 0.717529
vt 1.422758 0.717529
vt 1.422758 0.717529
vt 1.422758 0.717529
vt 1.422758 0.717529
vt 1.422758 0.717529
vt 1.422758 0.717529
vt 1.422758 0.717529
vt 1.422758 0.717529
vt 1.422758 0.717529
vt 1.422758 0.717529
vt 1.422758 0.717529
vt 1.422758 0.717529
s 0
usemtl DeLorean_EnginePart1.001
f 98/98/1 99/99/1 109/109/2 108/108/1
f 99/99/3 100/100/3 110/110/3 109/109/3
f 100/100/4 101/101/5 111/111/4 110/110/5
f 101/101/6 113/113/7 112/112/7 111/111/6
f 113/113/8 114/114/8 115/115/8 112/112/8
f 114/114/9 124/124/10 116/116/9 115/115/9
f 124/124/11 31/31/12 117/117/12 116/116/12
f 31/31/13 30/30/14 118/118/14 117/117/13
f 30/30/15 29/29/15 119/119/15 118/118/15
f 29/29/16 28/28/16 120/120/16 119/119/16
f 28/28/17 27/27/17 121/121/17 120/120/17
f 27/27/18 26/26/18 122/122/18 121/121/18
f 26/26/19 25/25/19 123/123/20 122/122/19
f 25/25/21 137/137/22 142/142/21 123/123/21
f 137/137/23 125/125/24 143/143/24 142/142/24
f 125/125/25 126/126/25 144/144/25 143/143/25
f 35/35/26 153/153/26 154/154/26 96/96/26
f 94/94/27 35/35/27 96/96/27 95/95/27
f 36/36/28 152/152/28 153/153/28 35/35/28
f 93/93/29 36/36/29 35/35/29 94/94/29
f 37/37/28 151/151/28 152/152/28 36/36/28
f 92/92/28 37/37/28 36/36/28 93/93/28
f 39/39/30 150/150/30 151/151/30 37/37/30
f 91/91/30 39/39/30 37/37/30 92/92/30
f 40/40/28 149/149/28 150/150/28 39/39/28
f 90/90/30 40/40/30 39/39/30 91/91/30
f 41/41/28 148/148/28 149/149/28 40/40/28
f 89/89/31 41/41/31 40/40/31 90/90/31
f 42/42/30 147/147/30 148/148/30 41/41/30
f 88/88/30 42/42/30 41/41/30 89/89/30
f 43/43/32 146/146/32 147/147/32 42/42/32
f 87/87/28 43/43/28 42/42/28 88/88/28
f 44/44/28 145/145/28 146/146/28 43/43/28
f 86/86/28 44/44/28 43/43/28 87/87/28
f 45/45/28 144/144/28 145/145/28 44/44/28
f 85/85/28 45/45/28 44/44/28 86/86/28
f 46/46/28 143/143/28 144/144/28 45/45/28
f 84/84/28 46/46/28 45/45/28 85/85/28
f 47/47/28 142/142/28 143/143/28 46/46/28
f 83/83/28 47/47/28 46/46/28 84/84/28
f 48/48/28 123/123/28 142/142/28 47/47/28
f 82/82/28 48/48/28 47/47/28 83/83/28
f 49/49/28 122/122/28 123/123/28 48/48/28
f 81/81/28 49/49/28 48/48/28 82/82/28
f 50/50/28 121/121/28 122/122/28 49/49/28
f 80/80/28 50/50/28 49/49/28 81/81/28
f 126/126/33 127/127/33 145/145/33 144/144/33
f 51/51/28 120/120/28 121/121/28 50/50/28
f 79/79/28 51/51/28 50/50/28 80/80/28
f 52/52/28 119/119/28 120/120/28 51/51/28
f 78/78/28 52/52/28 51/51/28 79/79/28
f 53/53/28 118/118/28 119/119/28 52/52/28
f 77/77/32 53/53/32 52/52/32 78/78/32
f 54/54/28 117/117/28 118/118/28 53/53/28
f 76/76/28 54/54/28 53/53/28 77/77/28
f 55/55/28 116/116/28 117/117/28 54/54/28
f 75/75/28 55/55/28 54/54/28 76/76/28
f 56/56/32 115/115/32 116/116/32 55/55/32
f 74/74/32 56/56/32 55/55/32 75/75/32
f 57/57/28 112/112/28 115/115/28 56/56/28
f 73/73/28 57/57/28 56/56/28 74/74/28
f 58/58/32 111/111/32 112/112/32 57/57/32
f 72/72/32 58/58/32 57/57/32 73/73/32
f 59/59/28 110/110/28 111/111/28 58/58/28
f 71/71/28 59/59/28 58/58/28 72/72/28
f 60/60/32 109/109/32 110/110/32 59/59/32
f 127/127/34 128/128/34 146/146/34 145/145/34
f 128/128/35 129/129/35 147/147/35 146/146/35
f 129/129/36 130/130/36 148/148/36 147/147/36
f 130/130/37 131/131/37 149/149/37 148/148/37
f 131/131/38 132/132/38 150/150/38 149/149/38
f 70/70/32 60/60/32 59/59/32 71/71/32
f 132/132/39 133/133/39 151/151/39 150/150/39
f 61/61/32 108/108/32 109/109/32 60/60/32
f 133/133/40 134/134/41 152/152/41 151/151/41
f 69/69/28 61/61/28 60/60/28 70/70/28
f 134/134/42 135/135/42 153/153/42 152/152/42
f 62/62/32 107/107/32 108/108/32 61/61/32
f 135/135/43 136/136/43 154/154/43 153/153/43
f 67/67/32 62/62/32 61/61/32 69/69/32
f 113/113/44 101/101/44 139/139/45 141/141/45
f 63/63/46 106/106/46 107/107/46 62/62/46
f 141/141/47 139/139/47 138/138/47 140/140/47
f 66/66/48 63/63/48 62/62/48 67/67/48
f 64/64/26 105/105/26 106/106/26 63/63/26
f 65/65/27 64/64/27 63/63/27 66/66/27
f 103/103/49 104/104/49 105/105/49 64/64/49
f 102/102/50 103/103/50 64/64/50 65/65/50
f 32/32/51 102/102/52 65/65/51 1/1/53
f 1/1/54 65/65/54 66/66/54 2/2/54
f 2/2/41 66/66/41 67/67/41 3/3/41
f 3/3/39 67/67/39 69/69/39 4/4/39
f 4/4/38 69/69/38 70/70/38 5/5/38
f 5/5/37 70/70/37 71/71/37 6/6/37
f 6/6/36 71/71/36 72/72/36 7/7/36
f 7/7/55 72/72/55 73/73/55 8/8/55
f 8/8/56 73/73/56 74/74/56 9/9/56
f 9/9/57 74/74/57 75/75/58 10/10/57
f 10/10/25 75/75/59 76/76/60 11/11/25
f 11/11/61 76/76/61 77/77/61 12/12/62
f 12/12/63 77/77/64 78/78/64 161/161/64
f 161/161/65 78/78/65 79/79/65 160/160/65
f 160/160/18 79/79/18 80/80/18 159/159/18
f 159/159/66 80/80/66 81/81/66 158/158/66
f 158/158/16 81/81/16 82/82/16 157/157/16
f 157/157/67 82/82/67 83/83/67 156/156/67
f 156/156/68 83/83/68 84/84/68 155/155/68
f 155/155/69 84/84/69 85/85/12 24/24/70
f 24/24/71 85/85/72 86/86/72 13/13/72
f 13/13/8 86/86/8 87/87/8 14/14/8
f 14/14/73 87/87/73 88/88/73 15/15/73
f 15/15/74 88/88/75 89/89/76 16/16/77
f 16/16/78 89/89/78 90/90/78 17/17/78
f 17/17/1 90/90/79 91/91/79 18/18/2
f 18/18/80 91/91/80 92/92/80 19/19/80
f 19/19/81 92/92/81 93/93/81 20/20/81
f 20/20/82 93/93/82 94/94/82 21/21/82
f 21/21/83 94/94/83 95/95/83 22/22/83
f 22/22/84 95/95/84 96/96/84 23/23/84
f 23/23/85 96/96/85 154/154/85 136/136/85
f 32/32/86 33/33/87 103/103/86 102/102/87
f 33/33/88 34/34/88 104/104/88 103/103/88
f 34/34/89 38/38/83 105/105/89 104/104/83
f 38/38/90 68/68/90 106/106/90 105/105/90
f 68/68/81 97/97/81 107/107/81 106/106/81
f 97/97/80 98/98/80 108/108/80 107/107/80
