# This file uses centimeters as units for non-parametric coordinates.

mtllib Road.mtl
g default
v -0.500000 0.009488 1.775744
v -0.627497 0.009488 2.025744
v -0.507231 -0.099507 2.052520
v -0.421925 -0.087396 1.878249
v -0.250000 0.009488 1.775744
v -0.227721 -0.099507 1.839959
v -0.251290 -0.115077 2.034883
v -0.667639 0.009488 2.275744
v -0.550189 -0.099507 2.274058
v 0.000000 0.009488 1.560487
v -0.004425 -0.099507 1.728912
v -0.259988 -0.115077 2.275463
v -0.000738 -0.115077 2.016298
v -0.743200 0.009488 2.525744
v -0.573665 -0.099507 2.496269
v 0.250000 0.009488 1.697203
v 0.218350 -0.099507 1.794863
v -0.260554 -0.115077 2.519601
v 0.246438 -0.115077 2.028594
v 0.000000 -0.115077 2.275744
v -0.500000 0.009488 2.775744
v -0.441609 -0.087396 2.679346
v 0.500000 0.009488 1.775744
v 0.408792 -0.087396 1.864887
v -0.229266 -0.099507 2.737133
v -0.000738 -0.115077 2.533484
v 0.255363 -0.115077 2.275463
v 0.483235 -0.099507 2.051472
v -0.250000 0.009488 2.831467
v 0.602328 0.009488 2.025744
v 0.243389 -0.115077 2.524911
v -0.004425 -0.099507 2.811006
v 0.518751 -0.099507 2.274058
v 0.461370 -0.099507 2.497154
v 0.000000 0.009488 2.960185
v 0.662320 0.009488 2.275744
v 0.217842 -0.099507 2.775210
v 0.402313 -0.087396 2.690629
v 0.564247 0.009488 2.525744
v 0.250000 0.009488 2.897783
v 0.500000 0.009488 2.775744
v 45.317387 0.009488 3.998871
v -45.317387 0.009488 3.998871
v -45.317387 0.174339 3.998870
v 45.317387 0.174339 3.998870
v -45.317387 0.207956 4.007877
v 45.317387 0.207956 4.007877
v -45.317387 0.232566 4.032487
v 45.317387 0.232566 4.032487
v -45.317387 0.241574 4.066104
v 45.317387 0.241574 4.066104
v -45.317387 0.241574 4.221798
v 45.317387 0.241574 4.221798
v 45.317387 0.174339 4.289033
v -45.317387 0.174339 4.289033
v -45.317387 0.107091 4.289033
v 45.317387 0.107091 4.289033
v -45.317387 0.207956 4.280025
v 45.317387 0.207956 4.280025
v -45.317387 0.232566 4.255416
v 45.317387 0.232566 4.255416
v -45.317387 0.107091 6.674895
v 45.317387 0.107091 6.674895
v 45.317387 0.009488 -3.998865
v -45.317387 0.009488 -3.998865
v -45.317387 0.232566 -4.032483
v -45.317387 0.207957 -4.007874
v 45.317387 0.207957 -4.007874
v 45.317387 0.232566 -4.032483
v -45.317387 0.174339 -3.998866
v 45.317387 0.174339 -3.998866
v -45.317387 0.241574 -4.066100
v 45.317387 0.241574 -4.066100
v 45.317387 0.241574 -4.221795
v -45.317387 0.241574 -4.221795
v -45.317387 0.232566 -4.255412
v 45.317387 0.232566 -4.255412
v -45.317387 0.207956 -4.280021
v 45.317387 0.207956 -4.280021
v -45.317387 0.174339 -4.289029
v 45.317387 0.174339 -4.289029
v 45.317387 0.107091 -4.289029
v -45.317387 0.107091 -4.289029
v 45.317387 0.107091 -6.674891
v -45.317387 0.107091 -6.674891
v -0.525571 -0.052795 1.926978
v -0.563749 0.009488 1.900744
v -0.574546 -0.052795 2.042858
v -0.465353 -0.099507 1.944513
v -0.452278 -0.052795 1.840067
v -0.350593 -0.052795 1.811097
v -0.375000 0.009488 1.775744
v -0.341004 -0.099507 1.862162
v -0.234712 -0.052795 1.786153
v -0.361053 -0.115077 1.944654
v -0.389346 -0.115077 2.047277
v -0.237327 -0.115077 1.926746
v -0.603276 -0.052795 2.158739
v -0.647568 0.009488 2.150744
v -0.625987 -0.052795 2.274620
v -0.531434 -0.099507 2.162737
v -0.118831 -0.052795 1.711320
v -0.125000 0.009488 1.668115
v -0.115747 -0.099507 1.777626
v -0.002950 -0.052795 1.652331
v -0.404492 -0.115077 2.158739
v -0.414954 -0.115077 2.274620
v -0.257373 -0.115077 2.152743
v -0.118831 -0.115077 1.890135
v -0.123458 -0.115077 2.023092
v -0.002950 -0.115077 1.862961
v -0.656907 -0.052795 2.390501
v -0.705420 0.009488 2.400744
v -0.654993 -0.052795 2.506382
v -0.575723 -0.099507 2.385379
v 0.112931 -0.052795 1.674915
v 0.125000 0.009488 1.628845
v 0.106896 -0.099507 1.747562
v 0.228811 -0.052795 1.731544
v -0.429197 -0.115077 2.390501
v -0.426404 -0.115077 2.504656
v -0.263549 -0.115077 2.398183
v 0.112931 -0.115077 1.873364
v 0.121983 -0.115077 2.018899
v 0.229345 -0.115077 1.901590
v -0.125000 -0.115077 2.150744
v -0.125000 -0.115077 2.275744
v 0.000000 -0.115077 2.150744
v -0.579202 -0.052795 2.622262
v -0.621600 0.009488 2.650744
v -0.465685 -0.052795 2.715630
v -0.509642 -0.099507 2.606296
v 0.344692 -0.052795 1.774691
v 0.375000 0.009488 1.736474
v 0.330072 -0.099507 1.832098
v 0.443461 -0.052795 1.830966
v -0.385758 -0.115077 2.615360
v -0.347180 -0.099507 2.707002
v -0.243503 -0.115077 2.638415
v -0.125000 -0.115077 2.400744
v -0.123458 -0.115077 2.529164
v 0.000000 -0.115077 2.400744
v 0.125000 -0.115077 2.150744
v 0.125000 -0.115077 2.275744
v 0.254270 -0.115077 2.152743
v 0.346828 -0.115077 1.927884
v 0.374363 -0.115077 2.043085
v 0.446130 -0.099507 1.940321
v -0.350593 -0.052795 2.763972
v -0.375000 0.009488 2.803605
v -0.234712 -0.052795 2.798259
v 0.508004 -0.052795 1.926978
v 0.551164 0.009488 1.900744
v 0.550530 -0.052795 2.042858
v 0.125000 -0.115077 2.400744
v 0.121983 -0.115077 2.532704
v 0.252238 -0.115077 2.398183
v -0.118831 -0.115077 2.664423
v -0.115747 -0.099507 2.780024
v -0.002950 -0.115077 2.681705
v 0.392081 -0.115077 2.158739
v 0.396454 -0.115077 2.274620
v 0.510913 -0.099507 2.162737
v 0.383950 -0.115077 2.390501
v 0.362166 -0.115077 2.508196
v 0.496336 -0.099507 2.385379
v -0.118831 -0.052795 2.849464
v -0.125000 0.009488 2.895826
v -0.002950 -0.052795 2.886981
v 0.583244 -0.052795 2.158739
v 0.632324 0.009488 2.150744
v 0.592735 -0.052795 2.274620
v 0.112931 -0.115077 2.678584
v 0.106896 -0.099507 2.805408
v 0.227312 -0.115077 2.659656
v 0.338697 -0.115077 2.629520
v 0.328039 -0.099507 2.732387
v 0.431554 -0.099507 2.609836
v 0.565592 -0.052795 2.390501
v 0.613284 0.009488 2.400744
v 0.524053 -0.052795 2.506382
v 0.112931 -0.052795 2.880204
v 0.125000 0.009488 2.928984
v 0.228811 -0.052795 2.844368
v 0.490353 -0.052795 2.622262
v 0.532124 0.009488 2.650744
v 0.439048 -0.052795 2.723315
v 0.344692 -0.052795 2.794711
v 0.375000 0.009488 2.836764
vt -0.033990 -22.585001
vt -0.033990 23.572836
vt -0.080846 23.572836
vt -0.080846 -22.585001
vt -0.090403 23.572836
vt -0.090403 -22.585001
vt 0.108692 23.557648
vt 0.101696 23.557648
vt 0.101696 -22.600189
vt 0.108692 -22.600189
vt 0.092143 23.557648
vt 0.092143 -22.600189
vt 0.047891 23.557648
vt 0.047891 -22.600189
vt 0.220898 -22.557648
vt 0.220898 23.600189
vt 0.201783 23.600189
vt 0.201783 -22.557648
vt 0.230451 23.600189
vt 0.230451 -22.557648
vt 0.038334 23.557648
vt 0.038334 -22.600189
vt 0.031342 23.557648
vt 0.031342 -22.600189
vt 0.094788 -24.102598
vt 0.094788 25.124954
vt -0.663612 25.124954
vt -0.663612 -24.102598
vt -0.008318 2.800112
vt 0.177532 0.537722
vt 0.209072 0.533886
vt 0.240612 0.531849
vt 0.272152 0.525378
vt 0.272152 0.512689
vt 0.299309 0.500000
vt 0.282061 0.487311
vt 0.272152 0.474622
vt -0.008318 -1.800112
vt 1.000680 -1.800112
vt 1.000680 2.800112
vt 0.240612 0.469428
vt 0.209072 0.466383
vt 0.177532 0.471361
vt 0.145992 0.474622
vt 0.130595 0.487311
vt 0.122723 0.500000
vt 0.138962 0.512689
vt 0.145992 0.525378
vt 0.123554 23.598104
vt 0.116562 23.598104
vt 0.116562 -22.559736
vt 0.123554 -22.559736
vt 0.026879 23.588715
vt 0.017325 23.588715
vt 0.017325 -22.569126
vt 0.026879 -22.569126
vt 0.133111 23.598104
vt 0.133111 -22.559736
vt 0.177363 -22.559736
vt 0.177363 23.598104
vt -0.029531 23.588715
vt -0.029531 -22.569126
vt 0.186917 23.598104
vt 0.186917 -22.559736
vt 0.193912 23.598104
vt 0.193912 -22.559736
vt 0.247863 23.561367
vt 0.238306 23.561367
vt 0.238306 -22.596472
vt 0.247863 -22.596472
vt 0.266976 -22.596472
vt 0.266976 23.561367
vt 0.105305 25.102598
vt 0.105305 -24.124954
vt 0.863705 -24.124954
vt 0.863705 25.102598
vt 0.256382 0.528613
vt 0.272152 0.519033
vt 0.224842 0.532868
vt 0.285731 0.506345
vt 0.193302 0.535804
vt 0.290685 0.493656
vt 0.161762 0.531550
vt 0.277107 0.480967
vt 0.142477 0.519033
vt 0.256382 0.472025
vt 0.130842 0.506344
vt 0.224842 0.467906
vt 0.193302 0.468872
vt 0.126659 0.493656
vt 0.161762 0.472992
vt 0.138294 0.480967
vt 0.804424 0.572534
vt 0.800508 0.592233
vt 0.784378 0.602804
vt 0.784343 0.577415
vt 0.809803 0.599621
vt 0.816855 0.574868
vt 0.788646 0.617463
vt 0.758086 0.612998
vt 0.759362 0.584302
vt 0.788703 0.547296
vt 0.809829 0.544958
vt 0.822927 0.546660
vt 0.825461 0.580810
vt 0.825461 0.611238
vt 0.795032 0.626756
vt 0.760438 0.629385
vt 0.731256 0.618890
vt 0.732229 0.587989
vt 0.762379 0.550695
vt 0.825003 0.517701
vt 0.797615 0.518451
vt 0.841143 0.518451
vt 0.764604 0.642274
vt 0.732229 0.636378
vt 0.704158 0.623456
vt 0.704021 0.590536
vt 0.733689 0.552176
vt 0.765250 0.519578
vt 0.804230 0.490243
vt 0.836861 0.490602
vt 0.855503 0.490243
vt 0.734176 0.647160
vt 0.704021 0.641907
vt 0.677059 0.629671
vt 0.675812 0.594003
vt 0.703816 0.552813
vt 0.734176 0.519953
vt 0.766903 0.489704
vt 0.832321 0.463503
vt 0.801697 0.462034
vt 0.850005 0.462034
vt 0.877860 0.489525
vt 0.851660 0.519953
vt 0.703747 0.652046
vt 0.675812 0.649433
vt 0.650066 0.629170
vt 0.648024 0.593323
vt 0.673942 0.553680
vt 0.703747 0.519953
vt 0.734176 0.489525
vt 0.766270 0.459831
vt 0.794827 0.433696
vt 0.820807 0.436372
vt 0.836220 0.433826
vt 0.861220 0.459096
vt 0.673319 0.661243
vt 0.647604 0.648968
vt 0.623282 0.613585
vt 0.621076 0.583429
vt 0.644386 0.552951
vt 0.673319 0.519953
vt 0.703747 0.489525
vt 0.734176 0.459096
vt 0.763910 0.429535
vt 0.811743 0.409176
vt 0.788426 0.405097
vt 0.825717 0.405617
vt 0.844580 0.428668
vt 0.642891 0.670440
vt 0.619396 0.630518
vt 0.605500 0.597024
vt 0.598768 0.574038
vt 0.615463 0.548800
vt 0.642058 0.519578
vt 0.673319 0.489525
vt 0.703747 0.459096
vt 0.733689 0.427629
vt 0.760383 0.398395
vt 0.785398 0.380925
vt 0.803761 0.390014
vt 0.812018 0.381575
vt 0.835020 0.398240
vt 0.612462 0.640839
vt 0.596667 0.602885
vt 0.584900 0.574868
vt 0.591433 0.545334
vt 0.609132 0.518451
vt 0.641006 0.489704
vt 0.673319 0.459096
vt 0.703816 0.427362
vt 0.732229 0.394082
vt 0.758341 0.371892
vt 0.788646 0.365863
vt 0.825461 0.367811
vt 0.582034 0.611238
vt 0.575252 0.580810
vt 0.576553 0.546660
vt 0.580992 0.517701
vt 0.604925 0.490243
vt 0.641196 0.459831
vt 0.673942 0.428123
vt 0.704021 0.393017
vt 0.731256 0.365155
vt 0.760438 0.355511
vt 0.795032 0.355357
vt 0.568470 0.550381
vt 0.564088 0.518451
vt 0.573450 0.490602
vt 0.605685 0.462034
vt 0.643093 0.430277
vt 0.675812 0.396061
vt 0.704158 0.363247
vt 0.732229 0.347548
vt 0.764604 0.342902
vt 0.552803 0.519953
vt 0.554956 0.490243
vt 0.574813 0.463503
vt 0.610293 0.434191
vt 0.647162 0.401364
vt 0.677059 0.368703
vt 0.704021 0.345237
vt 0.734176 0.335600
vt 0.537136 0.489525
vt 0.556606 0.462034
vt 0.582164 0.436496
vt 0.617629 0.407077
vt 0.649850 0.377215
vt 0.675813 0.351844
vt 0.703747 0.328298
vt 0.544731 0.459096
vt 0.565329 0.433826
vt 0.592588 0.409671
vt 0.622420 0.384473
vt 0.647604 0.361956
vt 0.673319 0.340235
vt 0.552326 0.428668
vt 0.577417 0.405617
vt 0.602753 0.391591
vt 0.619396 0.370160
vt 0.642891 0.352172
vt 0.567180 0.398240
vt 0.594797 0.382649
vt 0.612462 0.359992
vt 0.582034 0.367811
vt 0.864548 0.432059
vt 0.879710 0.435780
vt 0.879710 0.466209
vt 0.864548 0.460267
vt 0.879710 0.405352
vt 0.864548 0.403850
vn 0.369756 0.738407 0.563947
vn 0.401802 0.714053 0.573310
vn 0.650933 0.667298 0.361939
vn 0.603125 0.725261 0.332021
vn 0.324901 0.605129 0.726814
vn 0.339820 0.402180 0.850161
vn 0.097005 0.559600 0.823066
vn 0.127309 0.630850 0.765389
vn 0.113281 0.907867 0.403664
vn 0.271078 0.868520 0.414958
vn 0.321479 0.926253 0.196742
vn 0.069034 0.993467 0.090870
vn 0.652922 0.726890 0.212894
vn 0.735552 0.631035 0.246492
vn 0.786795 0.598800 0.149641
vn 0.671163 0.729461 0.132014
vn 0.103873 0.782727 0.613636
vn 0.069330 0.747016 0.661181
vn 0.473458 0.583970 0.659406
vn 0.403799 0.667448 0.625667
vn 0.063595 0.997833 0.016852
vn 0.326838 0.939789 0.099865
vn 0.301330 0.951702 0.058850
vn 0.056505 0.998364 0.008755
vn 0.165898 0.930279 0.327198
vn 0.131670 0.923928 0.359194
vn 0.018896 0.997353 0.070209
vn 0.025089 0.997619 0.064235
vn 0.667860 0.729150 0.149346
vn 0.804802 0.562312 0.189996
vn 0.729465 0.667658 0.148704
vn 0.641310 0.758766 0.113996
vn -0.280101 0.698036 0.659006
vn -0.322295 0.569192 0.756403
vn -0.300003 0.669649 0.679389
vn -0.243489 0.745332 0.620639
vn 0.051307 0.998653 0.007713
vn 0.277364 0.959208 0.054677
vn 0.283060 0.958551 0.032519
vn 0.051877 0.998645 0.004049
vn -0.095970 0.944269 0.314875
vn 0.050629 0.941349 0.333614
vn 0.006860 0.998063 0.061833
vn -0.014672 0.998065 0.060425
vn 0.000000 1.000000 0.000000
vn 0.000000 1.000000 0.000000
vn 0.000000 1.000000 0.000000
vn 0.000000 1.000000 0.000000
vn 0.569727 0.800118 -0.187675
vn 0.623507 0.754652 -0.204300
vn 0.516393 0.708136 -0.481541
vn 0.491425 0.754166 -0.435585
vn -0.450103 0.749014 0.486196
vn -0.476240 0.724125 0.498837
vn -0.277412 0.643867 0.713076
vn -0.264579 0.704211 0.658851
vn 0.056867 0.998257 -0.015783
vn 0.297929 0.950109 -0.092359
vn 0.270170 0.934264 -0.232722
vn 0.064285 0.993589 -0.092997
vn 0.000000 1.000000 0.000000
vn 0.000000 1.000000 -0.000000
vn 0.000000 1.000000 -0.000000
vn 0.000000 1.000000 -0.000000
vn 0.000000 1.000000 -0.000000
vn 0.000000 1.000000 -0.000000
vn 0.000000 1.000000 -0.000000
vn 0.000000 1.000000 -0.000000
vn -0.162498 0.922106 0.351163
vn -0.123088 0.937147 0.326503
vn -0.019269 0.997729 0.064546
vn -0.078690 0.993564 0.081471
vn 0.367584 0.719226 -0.589572
vn 0.383087 0.687908 -0.616463
vn 0.219162 0.621449 -0.752176
vn 0.211608 0.686779 -0.695382
vn -0.648084 0.733478 0.204934
vn -0.729325 0.641839 0.236913
vn -0.665896 0.680981 0.304710
vn -0.617640 0.734189 0.281935
vn 0.000000 1.000000 0.000000
vn 0.000000 1.000000 0.000000
vn 0.000000 1.000000 -0.000000
vn 0.000000 1.000000 0.000000
vn 0.000000 1.000000 0.000000
vn 0.000000 1.000000 -0.000000
vn 0.015811 0.997633 -0.066926
vn 0.015941 0.997941 -0.062129
vn -0.066500 0.997648 0.016616
vn 0.000000 1.000000 -0.000000
vn 0.000000 1.000000 -0.000000
vn -0.062312 0.998023 0.008261
vn -0.062008 0.998070 -0.003252
vn 0.000000 1.000000 -0.000000
vn 0.000000 1.000000 0.000000
vn -0.064466 0.997831 -0.013295
vn 0.250015 0.680065 -0.689205
vn 0.288024 0.545718 -0.786914
vn 0.321083 0.618441 -0.717242
vn 0.265256 0.715638 -0.646143
vn -0.642903 0.764394 -0.048763
vn -0.718377 0.693873 -0.049758
vn -0.729556 0.666421 0.153728
vn -0.646962 0.752163 0.125265
vn 0.000000 1.000000 -0.000000
vn 0.000000 1.000000 -0.000000
vn 0.005409 0.998206 -0.059622
vn -0.008067 0.998196 -0.059489
vn -0.069407 0.997454 -0.016351
vn 0.000000 1.000000 0.000000
vn -0.018158 0.997778 -0.064105
vn -0.086058 0.993440 -0.075310
vn -0.673767 0.706851 -0.215406
vn -0.764883 0.595191 -0.246377
vn -0.724068 0.643117 -0.249252
vn -0.647647 0.733907 -0.204777
vn 0.087054 0.767406 -0.635224
vn 0.075957 0.699987 -0.710105
vn -0.156327 0.678977 -0.717322
vn -0.124956 0.762866 -0.634367
vn -0.500394 0.755812 -0.422320
vn -0.518021 0.731951 -0.442608
vn -0.712339 0.662241 -0.232402
vn -0.662098 0.715600 -0.222582
vn -0.225426 0.743746 -0.629304
vn -0.262032 0.655669 -0.708123
vn -0.340397 0.690323 -0.638423
vn -0.312845 0.741568 -0.593469
vn 0.000000 0.999712 -0.024017
vn 0.000000 0.999717 -0.023793
vn 0.000000 0.045335 -0.998972
vn 0.000000 0.045335 -0.998972
vn 0.000000 0.499997 -0.866027
vn 0.000000 0.499997 -0.866027
vn 0.000000 0.866026 -0.499999
vn 0.000000 0.866026 -0.499999
vn 0.000000 0.998870 -0.047528
vn 0.000000 0.998870 -0.047528
vn 0.000000 0.998870 0.047528
vn 0.000000 0.998870 0.047528
vn 0.000000 0.088953 0.996036
vn 0.000000 0.088953 0.996036
vn 0.000000 0.999603 0.028175
vn 0.000000 0.999603 0.028175
vn 0.000000 0.499998 0.866027
vn 0.000000 0.499998 0.866027
vn 0.000000 0.866025 0.500001
vn 0.000000 0.866025 0.500001
vn 0.000000 1.000000 0.000000
vn 0.000000 1.000000 0.000000
vn 0.000000 1.000000 0.000000
vn 0.000000 1.000000 0.000000
vn 0.000000 1.000000 0.000000
vn 0.000000 1.000000 0.000000
vn 0.000000 1.000000 0.000000
vn 0.000000 1.000000 0.000000
vn 0.000000 1.000000 0.000000
vn 0.000000 1.000000 0.000000
vn 0.000000 1.000000 0.000000
vn 0.000000 1.000000 0.000000
vn 0.000000 1.000000 0.000000
vn 0.000000 1.000000 0.000000
vn 0.000000 1.000000 0.000000
vn 0.000000 1.000000 0.000000
vn 0.000000 1.000000 0.000000
vn 0.000000 0.999727 0.023359
vn 0.000000 0.999727 0.023359
vn 0.000000 1.000000 0.000000
vn 0.000000 1.000000 0.000000
vn 0.000000 1.000000 0.000000
vn 0.000000 1.000000 0.000000
vn 0.000000 1.000000 0.000000
vn 0.000000 1.000000 0.000000
vn 0.000000 1.000000 0.000000
vn 0.000000 1.000000 0.000000
vn 0.000000 1.000000 0.000000
vn 0.000000 1.000000 0.000000
vn 0.000000 1.000000 0.000000
vn 0.000000 1.000000 0.000000
vn 0.000000 1.000000 0.000000
vn 0.000000 1.000000 0.000000
vn 0.000000 1.000000 0.000000
vn 0.000000 1.000000 0.000000
vn 0.000000 1.000000 0.000000
vn 0.000000 0.866026 0.500000
vn 0.000000 0.500004 0.866023
vn 0.000000 0.500004 0.866023
vn 0.000000 0.866026 0.500000
vn 0.000000 0.045344 0.998971
vn 0.000000 0.045344 0.998971
vn 0.000000 0.998870 0.047527
vn 0.000000 0.998870 0.047527
vn 0.000000 0.998870 -0.047528
vn 0.000000 0.998870 -0.047528
vn 0.000000 0.866025 -0.500001
vn 0.000000 0.866025 -0.500001
vn 0.000000 0.499998 -0.866027
vn 0.000000 0.499998 -0.866027
vn 0.000000 0.088953 -0.996036
vn 0.000000 0.088953 -0.996036
vn 0.000000 0.999603 -0.028175
vn 0.000000 0.999603 -0.028175
vn 0.000000 1.000000 0.000000
vn 0.000000 1.000000 0.000000
vn 0.264708 0.863967 -0.428357
vn -0.331667 0.872964 0.357674
vn 0.129854 0.918296 -0.373993
vn 0.107408 0.933239 -0.342824
vn -0.333541 0.937669 0.097613
vn -0.338636 0.925185 0.171341
vn 0.107575 0.940720 -0.321671
vn 0.038985 0.947427 -0.317588
vn -0.325730 0.945200 -0.022293
vn -0.322604 0.945082 0.052412
vn -0.346524 0.932712 -0.099848
vn -0.329115 0.940382 -0.085822
vn -0.050815 0.949003 -0.311145
vn -0.106631 0.941032 -0.321074
vn -0.185003 0.927535 -0.324734
vn -0.370973 0.874529 -0.312375
vn -0.363426 0.920327 -0.144634
s 1
g pCube4
usemtl phong1SG
f 90/97/1 1/106/2 87/107/3 86/99/4
f 94/237/5 5/238/6 92/239/7 91/240/8
f 93/93/9 4/94/10 89/95/11 95/96/12
f 88/108/13 2/115/14 99/124/15 98/116/16
f 105/123/17 10/134/18 103/135/19 102/114/20
f 96/101/21 3/100/22 101/109/23 106/110/24
f 104/112/25 6/103/26 97/102/27 109/113/28
f 100/125/29 8/136/30 113/148/31 112/137/32
f 119/146/33 16/160/34 117/147/35 116/133/36
f 107/118/37 9/117/38 115/126/39 120/127/40
f 118/131/41 11/122/42 111/121/43 123/132/44
f 110/120/45 7/111/46 108/119/47 126/129/48
f 114/149/49 14/161/50 130/175/51 129/162/52
f 136/173/53 23/186/54 134/174/55 133/159/56
f 121/139/57 15/138/58 132/150/59 137/151/60
f 127/141/61 12/128/62 122/140/63 140/153/64
f 124/143/65 13/130/66 128/142/67 143/155/68
f 135/157/69 17/145/70 125/144/71 146/158/72
f 131/176/73 21/187/74 150/188/75 149/177/76
f 154/196/77 30/206/78 153/197/79 152/185/80
f 144/168/81 20/154/82 142/167/83 155/181/84
f 141/166/85 18/152/86 139/165/87 158/179/88
f 147/170/89 19/156/90 145/169/91 161/183/92
f 162/194/93 27/182/94 157/193/95 164/203/96
f 151/189/97 29/198/98 168/207/99 167/199/100
f 172/213/101 36/221/102 171/214/103 170/205/104
f 156/192/105 26/180/106 160/191/107 173/201/108
f 165/211/109 31/202/110 175/210/111 176/218/112
f 181/226/113 39/232/114 180/227/115 179/220/116
f 169/208/117 35/215/118 183/222/119 182/216/120
f 187/234/121 41/236/122 186/235/123 185/231/124
f 184/223/125 40/228/126 189/233/127 188/229/128
s 14
usemtl phong2SG
f 42/1/129 43/2/130 44/3/131 45/4/132
f 44/3/131 46/5/133 47/6/134 45/4/132
f 46/7/133 48/8/135 49/9/136 47/10/134
f 48/8/135 50/11/137 51/12/138 49/9/136
f 51/12/138 50/11/137 52/13/139 53/14/140
f 54/15/141 55/16/142 56/17/143 57/18/144
f 58/19/145 55/16/142 54/15/141 59/20/146
f 52/13/139 60/21/147 61/22/148 53/14/140
f 60/21/147 58/23/145 59/24/146 61/22/148
usemtl phong3SG
f 57/25/144 56/26/143 62/27/149 63/28/150
usemtl phong1SG
f 43/29/130 14/30/151 113/81/152 8/31/153 99/79/154 2/32/155 87/77/156 1/33/157 92/78/158 5/34/159 103/80/160 10/35/161 117/82/162 16/36/163 134/84/164 23/37/165 42/38/129 64/39/166 65/40/167
f 23/37/165 153/86/168 30/41/169 171/88/170 36/42/171 180/89/172 39/43/173 186/91/174 41/44/175 189/92/176 40/45/177 183/90/178 35/46/179 168/87/180 29/47/181 150/85/182 21/48/183 130/83/184 14/30/151 43/29/130 42/38/129
usemtl phong2SG
f 66/49/185 67/50/186 68/51/187 69/52/188
f 67/53/186 70/54/189 71/55/190 68/56/187
f 72/57/191 66/49/185 69/52/188 73/58/192
f 72/57/191 73/58/192 74/59/193 75/60/194
f 65/61/167 64/62/166 71/55/190 70/54/189
f 76/63/195 75/60/194 74/59/193 77/64/196
f 78/65/197 76/63/195 77/64/196 79/66/198
f 80/67/199 78/68/197 79/69/198 81/70/200
f 80/67/199 81/70/200 82/71/201 83/72/202
usemtl phong3SG
f 83/73/202 82/74/201 84/75/203 85/76/204
s 1
usemtl phong1SG
f 87/107/3 2/115/14 88/108/13 86/99/4
f 88/108/13 3/100/22 89/95/11 86/99/4
f 89/95/11 4/94/10 90/97/1 86/99/4
f 92/105/7 1/106/2 90/97/1 91/98/8
f 90/97/1 4/94/10 93/93/9 91/98/8
f 93/93/9 6/103/26 94/104/5 91/98/8
f 89/95/11 3/100/22 96/101/21 95/96/12
f 96/101/21 7/111/46 97/102/27 95/96/12
f 97/102/27 6/103/26 93/93/9 95/96/12
f 99/124/15 8/136/30 100/125/29 98/116/16
f 100/125/29 9/117/38 101/109/23 98/116/16
f 101/109/23 3/100/22 88/108/13 98/116/16
f 103/241/19 5/238/6 94/237/5 102/242/20
f 94/104/5 6/103/26 104/112/25 102/114/20
f 104/112/25 11/122/42 105/123/17 102/114/20
f 101/109/23 9/117/38 107/118/37 106/110/24
f 107/118/37 12/128/62 108/119/47 106/110/24
f 108/119/47 7/111/46 96/101/21 106/110/24
f 97/102/27 7/111/46 110/120/45 109/113/28
f 110/120/45 13/130/66 111/121/43 109/113/28
f 111/121/43 11/122/42 104/112/25 109/113/28
f 113/148/31 14/161/50 114/149/49 112/137/32
f 114/149/49 15/138/58 115/126/39 112/137/32
f 115/126/39 9/117/38 100/125/29 112/137/32
f 117/147/35 10/134/18 105/123/17 116/133/36
f 105/123/17 11/122/42 118/131/41 116/133/36
f 118/131/41 17/145/70 119/146/33 116/133/36
f 115/126/39 15/138/58 121/139/57 120/127/40
f 121/139/57 18/152/86 122/140/63 120/127/40
f 122/140/63 12/128/62 107/118/37 120/127/40
f 111/121/43 13/130/66 124/143/65 123/132/44
f 124/143/65 19/156/90 125/144/71 123/132/44
f 125/144/71 17/145/70 118/131/41 123/132/44
f 108/119/47 12/128/62 127/141/61 126/129/48
f 127/141/61 20/154/82 128/142/67 126/129/48
f 128/142/67 13/130/66 110/120/45 126/129/48
f 130/175/51 21/187/74 131/176/73 129/162/52
f 131/176/73 22/163/205 132/150/59 129/162/52
f 132/150/59 15/138/58 114/149/49 129/162/52
f 134/174/55 16/160/34 119/146/33 133/159/56
f 119/146/33 17/145/70 135/157/69 133/159/56
f 135/157/69 24/172/206 136/173/53 133/159/56
f 132/150/59 22/163/205 138/164/207 137/151/60
f 138/164/207 25/178/208 139/165/87 137/151/60
f 139/165/87 18/152/86 121/139/57 137/151/60
f 122/140/63 18/152/86 141/166/85 140/153/64
f 141/166/85 26/180/106 142/167/83 140/153/64
f 142/167/83 20/154/82 127/141/61 140/153/64
f 128/142/67 20/154/82 144/168/81 143/155/68
f 144/168/81 27/182/94 145/169/91 143/155/68
f 145/169/91 19/156/90 124/143/65 143/155/68
f 125/144/71 19/156/90 147/170/89 146/158/72
f 147/170/89 28/184/209 148/171/210 146/158/72
f 148/171/210 24/172/206 135/157/69 146/158/72
f 150/188/75 29/198/98 151/189/97 149/177/76
f 151/189/97 25/178/208 138/164/207 149/177/76
f 138/164/207 22/163/205 131/176/73 149/177/76
f 153/197/79 23/186/54 136/173/53 152/185/80
f 136/173/53 24/172/206 148/171/210 152/185/80
f 148/171/210 28/184/209 154/196/77 152/185/80
f 142/167/83 26/180/106 156/192/105 155/181/84
f 156/192/105 31/202/110 157/193/95 155/181/84
f 157/193/95 27/182/94 144/168/81 155/181/84
f 139/165/87 25/178/208 159/190/211 158/179/88
f 159/190/211 32/200/212 160/191/107 158/179/88
f 160/191/107 26/180/106 141/166/85 158/179/88
f 145/169/91 27/182/94 162/194/93 161/183/92
f 162/194/93 33/204/213 163/195/214 161/183/92
f 163/195/214 28/184/209 147/170/89 161/183/92
f 157/193/95 31/202/110 165/211/109 164/203/96
f 165/211/109 34/219/215 166/212/216 164/203/96
f 166/212/216 33/204/213 162/194/93 164/203/96
f 168/207/99 35/215/118 169/208/117 167/199/100
f 169/208/117 32/200/212 159/190/211 167/199/100
f 159/190/211 25/178/208 151/189/97 167/199/100
f 171/214/103 30/206/78 154/196/77 170/205/104
f 154/196/77 28/184/209 163/195/214 170/205/104
f 163/195/214 33/204/213 172/213/101 170/205/104
f 160/191/107 32/200/212 174/209/217 173/201/108
f 174/209/217 37/217/218 175/210/111 173/201/108
f 175/210/111 31/202/110 156/192/105 173/201/108
f 175/210/111 37/217/218 177/224/219 176/218/112
f 177/224/219 38/230/220 178/225/221 176/218/112
f 178/225/221 34/219/215 165/211/109 176/218/112
f 180/227/115 36/221/102 172/213/101 179/220/116
f 172/213/101 33/204/213 166/212/216 179/220/116
f 166/212/216 34/219/215 181/226/113 179/220/116
f 183/222/119 40/228/126 184/223/125 182/216/120
f 184/223/125 37/217/218 174/209/217 182/216/120
f 174/209/217 32/200/212 169/208/117 182/216/120
f 186/235/123 39/232/114 181/226/113 185/231/124
f 181/226/113 34/219/215 178/225/221 185/231/124
f 178/225/221 38/230/220 187/234/121 185/231/124
f 189/233/127 41/236/122 187/234/121 188/229/128
f 187/234/121 38/230/220 177/224/219 188/229/128
f 177/224/219 37/217/218 184/223/125 188/229/128
